<?xml version="1.0" encoding="utf-8"?>
<!-- Generator: Adobe Illustrator 22.1.0, SVG Export Plug-In . SVG Version: 6.00 Build 0)  -->
<svg version="1.1" id="Laag_1" xmlns="http://www.w3.org/2000/svg" xmlns:xlink="http://www.w3.org/1999/xlink" x="0px" y="0px"
	 viewBox="0 0 500 500" style="enable-background:new 0 0 500 500;" xml:space="preserve">
<style type="text/css">
	.st0{fill:#A90909;}
	.st1{fill:#4B5050;}
	.st2{fill:#C6C6C6;}
	.st3{fill:#FFFFFF;}
</style>
<path class="st0" d="M281.2,27.4L281.2,27.4c-22.5-10.2-49.1-0.2-59.3,22.3l-42.2,93l51.5,23.4L287.1,43
	C289.8,37.1,287.1,30.1,281.2,27.4z M247,66.4c-5.5-2.5-7.9-9-5.4-14.5s9-7.9,14.5-5.4s7.9,9,5.4,14.5S252.5,68.9,247,66.4z"/>
<polygon class="st1" points="174.4,154.5 149.9,208.5 214.6,235.1 237.8,182.4 "/>
<path class="st0" d="M341.2,94.2L341.2,94.2c-17.2-7.5-37.3,0.4-44.8,17.6l-30.9,71.1l39.4,17.1l41-94.1
	C347.8,101.4,345.7,96.2,341.2,94.2z M315.7,124.2c-4.2-1.8-6.1-6.7-4.3-10.9c1.8-4.2,6.7-6.1,10.9-4.3c4.2,1.8,6.1,6.7,4.3,10.9
	C324.7,124.1,319.9,126,315.7,124.2z"/>
<path class="st0" d="M406,144L406,144c-17.2-7.5-37.3,0.4-44.8,17.6l-23,52.9l39.4,17.1l33-75.8C412.6,151.3,410.6,146,406,144z
	 M380.5,174c-4.2-1.8-6.1-6.7-4.3-10.9c1.8-4.2,6.7-6.1,10.9-4.3c4.2,1.8,6.1,6.7,4.3,10.9C389.6,173.9,384.7,175.8,380.5,174z"/>
<polygon class="st1" points="333.3,226.1 311.2,274.9 353.8,293.3 375,244.4 "/>
<path class="st2" d="M413.2,331.1v130.5c0,2.6-3,4.9-6.7,4.9H90.9c-3.6,0-6.7-2.2-6.7-4.9v-262c0.1,0,0.3,0,0.4,0.1l47.5,19.1
	l84.8,34.1l18.4,7.4L257,269l0.5,0.2l42.7,17.2l15.8,6.4l48.9,19.7l44.4,17.9c0.9,0.3,2.2,0.8,3.8,1
	C413.1,331.1,413.2,331.1,413.2,331.1z"/>
<path class="st3" d="M226.4,384.2H117.6c-1.6,0-3,1.4-3,3v1.5c0,1.6,1.3,3,3,3h108.8c1.7,0,3-1.4,3-3v-1.5
	C229.4,385.6,228,384.2,226.4,384.2z"/>
<path class="st3" d="M254.4,418.9H145.6c-1.6,0-3,1.4-3,3v1.5c0,1.6,1.4,3,3,3h108.8c1.7,0,3-1.4,3-3v-1.5
	C257.4,420.3,256,418.9,254.4,418.9z"/>
<polygon class="st1" points="261.5,193.3 238,245 288.9,266 310.6,214.8 "/>
</svg>
