<?xml version="1.0" encoding="utf-8"?>
<!-- Generator: Adobe Illustrator 22.1.0, SVG Export Plug-In . SVG Version: 6.00 Build 0)  -->
<svg version="1.1" id="Laag_1" xmlns="http://www.w3.org/2000/svg" xmlns:xlink="http://www.w3.org/1999/xlink" x="0px" y="0px"
	 viewBox="0 0 500 500" style="enable-background:new 0 0 500 500;" xml:space="preserve">
<style type="text/css">
	.st0{fill:#A90909;}
	.st1{fill:#4B5050;}
	.st2{fill:#9D9D9C;}
</style>
<path class="st0" d="M181.8,16.7L181.8,16.7c-26.9,0-48.7,21.8-48.7,48.7v111h61.5V29.5C194.6,22.5,188.9,16.7,181.8,16.7z
	 M165.5,70.7c-6.6,0-11.9-5.3-11.9-11.9s5.3-11.9,11.9-11.9s11.9,5.3,11.9,11.9S172.1,70.7,165.5,70.7z"/>
<path class="st1" d="M158.3,190.4h-25.1v280.5c8.8,0,17.3-2.4,25.1-6.7v-0.1c8.7-4.8,16.6-12.1,23.5-21.2c1-1.2,1.9-2.6,2.8-3.9
	V190.4H158.3z"/>
<path class="st0" d="M286.3,37.2L286.3,37.2c-20.4,0-37,16.5-37,37v84.2H296V46.9C296,41.6,291.7,37.2,286.3,37.2z M273.9,78.2
	c-5,0-9-4-9-9s4-9,9-9s9,4,9,9C282.9,74.1,278.9,78.2,273.9,78.2z"/>
<path class="st2" d="M305.5,171.7V297c0,26-7.3,49.4-18.8,65.4V171.7H305.5z"/>
<path class="st1" d="M268.3,171.7L268.3,171.7h-18.9v212.9c6.6,0,13-1.8,18.9-5.1v-0.1c6.6-3.7,12.5-9.2,17.6-16
	c0.2-0.3,0.5-0.7,0.7-1V171.7H268.3z"/>
<path class="st0" d="M382.3,85.8L382.3,85.8c-20.4,0-37,16.5-37,37v62.6H392V95.5C392,90.1,387.6,85.8,382.3,85.8z M369.9,126.7
	c-5,0-9-4-9-9s4-9,9-9s9,4,9,9S374.9,126.7,369.9,126.7z"/>
<path class="st2" d="M400.7,198.7V324c0,25.4-6.8,48.3-17.7,64.3V198.7H400.7z"/>
<path class="st1" d="M364.1,198.7h-18.6v212.9c6.6,0,12.8-1.8,18.6-5.1c6.5-3.7,12.3-9.2,17.4-16.1c0.5-0.7,1-1.4,1.5-2.1V198.7
	H364.1z"/>
<path class="st2" d="M207.7,190.4v165.1c0,32.9-8.9,62.6-23.2,83.6V190.4H207.7z"/>
</svg>
