<?xml version="1.0" encoding="utf-8"?>
<!-- Generator: Adobe Illustrator 22.1.0, SVG Export Plug-In . SVG Version: 6.00 Build 0)  -->
<svg version="1.1" id="Laag_1" xmlns="http://www.w3.org/2000/svg" xmlns:xlink="http://www.w3.org/1999/xlink" x="0px" y="0px"
	 viewBox="0 0 500 500" style="enable-background:new 0 0 500 500;" xml:space="preserve">
<style type="text/css">
	.st0{fill:#A90909;}
	.st1{fill:#FFFFFF;}
	.st2{fill:#C6C6C6;}
	.st3{fill:#4B5050;}
</style>
<circle class="st0" cx="251.6" cy="249.3" r="190.8"/>
<circle class="st1" cx="250.4" cy="250.6" r="159.4"/>
<path class="st2" d="M250.8,398.8c-2.8,0-5-2.2-5-5v-22.6c0-2.8,2.2-5,5-5s5,2.2,5,5v22.6C255.8,396.6,253.6,398.8,250.8,398.8z"/>
<path class="st2" d="M250.8,128.2c-2.8,0-5-2.2-5-5v-22.6c0-2.8,2.2-5,5-5s5,2.2,5,5v22.6C255.8,125.9,253.6,128.2,250.8,128.2z"/>
<path class="st2" d="M125.5,254.7H103c-2.8,0-5-2.2-5-5s2.2-5,5-5h22.6c2.8,0,5,2.2,5,5S128.3,254.7,125.5,254.7z"/>
<path class="st2" d="M396.1,254.7h-22.6c-2.8,0-5-2.2-5-5s2.2-5,5-5h22.6c2.8,0,5,2.2,5,5S398.9,254.7,396.1,254.7z"/>
<path class="st2" d="M161.8,168.3c-1.3,0-2.6-0.5-3.5-1.5l-15.9-15.9c-2-2-2-5.1,0-7.1s5.1-2,7.1,0l15.9,15.9c2,2,2,5.1,0,7.1
	C164.4,167.8,163.1,168.3,161.8,168.3z"/>
<path class="st2" d="M353.2,359.6c-1.3,0-2.6-0.5-3.5-1.5l-15.9-15.9c-2-2-2-5.1,0-7.1s5.1-2,7.1,0l15.9,15.9c2,2,2,5.1,0,7.1
	C355.8,359.1,354.5,359.6,353.2,359.6z"/>
<path class="st2" d="M339.7,168.3c-1.3,0-2.6-0.5-3.5-1.5c-2-2-2-5.1,0-7.1l15.9-15.9c2-2,5.1-2,7.1,0s2,5.1,0,7.1l-15.9,15.9
	C342.3,167.8,341,168.3,339.7,168.3z"/>
<path class="st2" d="M148.4,359.6c-1.3,0-2.6-0.5-3.5-1.5c-2-2-2-5.1,0-7.1l15.9-15.9c2-2,5.1-2,7.1,0s2,5.1,0,7.1L152,358.1
	C151,359.1,149.7,359.6,148.4,359.6z"/>
<path class="st3" d="M326.8,210.4l-2.9-3.1c-1.3-1.4-3.6-1.5-5-0.2L256,265.6V141.8c0-2.1-1.7-3.8-3.8-3.8h-3.8
	c-2.1,0-3.8,1.7-3.8,3.8v136c0,0,0,6.4,5.8,6.3l0-0.1c1.1,0.2,2.3,0,3.2-0.8l73-67.9C328,214.1,328.1,211.8,326.8,210.4z"/>
</svg>
