<?xml version="1.0" encoding="utf-8"?>
<!-- Generator: Adobe Illustrator 22.1.0, SVG Export Plug-In . SVG Version: 6.00 Build 0)  -->
<svg version="1.1" id="Laag_1" xmlns="http://www.w3.org/2000/svg" xmlns:xlink="http://www.w3.org/1999/xlink" x="0px" y="0px"
	 viewBox="0 0 500 500" style="enable-background:new 0 0 500 500;" xml:space="preserve">
<style type="text/css">
	.st0{fill:#C6C6C6;}
	.st1{fill:#FFFFFF;}
	.st2{fill:#A90909;}
	.st3{fill:#9D9D9C;}
	.st4{fill:#4B5050;}
</style>
<circle class="st0" cx="247.1" cy="299.6" r="189.8"/>
<rect x="364.6" y="407.5" class="st1" width="40.1" height="50.1"/>
<circle class="st1" cx="246.8" cy="295.5" r="112.6"/>
<path class="st2" d="M427.5,431.8L322.2,326.5l-44.1,44.1l79.6,79.6c19.3,19.3,50.5,19.3,69.8,0l0,0
	C432.5,445.1,432.5,436.8,427.5,431.8z M394.1,423.2c4.7,4.7,4.7,12.3,0,17s-12.3,4.7-17,0s-4.7-12.3,0-17S389.4,418.5,394.1,423.2z
	"/>
<path class="st3" d="M320.6,309.2l-16.4,16.3L125.9,147.2c25.2,5,52.7,20,76.3,43.6L320.6,309.2z"/>
<path class="st4" d="M304.2,325.5L126,147.1c-1.6-0.3-3.1-0.6-4.7-0.8c-11.4-1.7-22.2-1.3-31.8,1.4c-8.6,2.4-16.3,6.7-22.5,12.9
	l201,201.1l17.8-17.7l0,0l16.6-16.6L304.2,325.5z"/>
<path class="st4" d="M148.7,128.3c1.9-10.6,4.4-21.1,7.1-31.4c2.7-10.4,5.7-20.7,8.8-30.9c3.2-10.2,6.5-20.4,10.1-30.5
	s7.4-20.1,11.8-30c-1.9,10.6-4.4,21.1-7.1,31.4c-2.7,10.4-5.7,20.7-8.8,30.9c-3.2,10.2-6.5,20.4-10.1,30.5S153.1,118.4,148.7,128.3z
	"/>
<path class="st4" d="M163.4,129.5c9.3-8.4,19-16.2,28.8-23.9s19.7-15.2,29.8-22.5s20.2-14.5,30.6-21.4c10.3-6.9,20.8-13.7,31.6-19.9
	c-9.3,8.4-19,16.2-28.8,23.9s-19.7,15.2-29.8,22.5s-20.2,14.4-30.6,21.3C184.7,116.5,174.2,123.3,163.4,129.5z"/>
<path class="st4" d="M263.1,131.1c-7.8,2.1-15.6,3.5-23.4,4.8c-7.8,1.3-15.7,2.3-23.6,3.1c-7.9,0.8-15.8,1.4-23.8,1.7
	c-7.9,0.3-15.9,0.5-23.9-0.1c7.8-2.1,15.6-3.6,23.4-4.8c7.8-1.3,15.7-2.3,23.6-3.1c7.9-0.8,15.8-1.4,23.8-1.7
	C247.1,130.7,255.1,130.6,263.1,131.1z"/>
<path class="st4" d="M198.8,69.4c1.9-5.8,4.4-11.3,7-16.7s5.5-10.6,8.5-15.8c3-5.1,6.3-10.2,9.7-15.1c3.5-4.9,7.1-9.7,11.2-14.2
	c-1.9,5.8-4.4,11.3-7,16.7s-5.5,10.6-8.5,15.8c-3,5.1-6.3,10.2-9.7,15.1C206.6,60.1,203,64.9,198.8,69.4z"/>
<path class="st4" d="M244.9,102.7c5.2-2,10.4-3.4,15.7-4.5c5.3-1.2,10.6-2.1,16-2.8c5.3-0.7,10.7-1.2,16.1-1.5
	c5.4-0.2,10.8-0.3,16.4,0.3c-5.2,2-10.4,3.4-15.7,4.6c-5.3,1.2-10.6,2.1-16,2.8c-5.3,0.7-10.7,1.2-16.1,1.4
	C255.8,103.2,250.4,103.3,244.9,102.7z"/>
<path class="st1" d="M189.6,439.2c-0.3,0-0.7-0.1-1.1-0.2c-47.6-17-83.1-60-92.6-112.3c-0.3-1.7,0.8-3.3,2.5-3.6
	c1.7-0.3,3.3,0.8,3.6,2.5c9.1,50.1,43,91.3,88.5,107.5c1.6,0.6,2.5,2.4,1.9,4C192.1,438.4,190.9,439.2,189.6,439.2z"/>
<path class="st1" d="M392.5,271.4c-1.5,0-2.8-1.1-3.1-2.6c-9.1-50.1-43-91.3-88.5-107.5c-1.6-0.6-2.5-2.4-1.9-4s2.4-2.5,4-1.9
	c47.6,17,83.1,60,92.6,112.3c0.3,1.7-0.8,3.3-2.5,3.6C392.9,271.4,392.7,271.4,392.5,271.4z"/>
</svg>
