<?xml version="1.0" encoding="utf-8"?>
<!-- Generator: Adobe Illustrator 22.1.0, SVG Export Plug-In . SVG Version: 6.00 Build 0)  -->
<svg version="1.1" id="Laag_1" xmlns="http://www.w3.org/2000/svg" xmlns:xlink="http://www.w3.org/1999/xlink" x="0px" y="0px"
	 viewBox="0 0 500 500" style="enable-background:new 0 0 500 500;" xml:space="preserve">
<style type="text/css">
	.st0{fill:#A90909;}
	.st1{fill:#C6C6C6;}
	.st2{fill:#4B5050;}
	.st3{fill:#FFFFFF;}
</style>
<path class="st0" d="M449.6,237.6l-8.9-88.6c-0.2-1.8-1.7-3.1-3.4-3.1H90.1c-1.8,0-3.2,1.3-3.4,3.1L67.5,328.6
	c-0.2,2,1.4,3.8,3.4,3.8h58.4l-0.9-1c0,0,6.3-44,50.3-44c0,0,36.7,0,37.7,42.3c0,1.1-0.5,2.1-1.3,2.8l0,0h134.4l-0.9-1
	c0,0,6.3-44,50.3-44c0,0,36.7,0,37.7,42.3c0,1.1-0.5,2.1-1.3,2.8l0,0h41.3c1.8,0,3.2-1.3,3.4-3.1l7.8-72.4c0.2-1.5-0.7-3-2.2-3.6
	l-33.8-13C450.5,240,449.7,238.8,449.6,237.6z M373.8,233.6l6.4-47.6c0.2-1.7,1.7-3,3.4-3h39.5c1.8,0,3.2,1.3,3.4,3.1l4.6,47.2
	c0.2,2-1.4,3.7-3.4,3.8l-50.5,0.5C375.1,237.5,373.5,235.7,373.8,233.6z"/>
<path class="st1" d="M447.5,363.4H91.4c-1.7,0-3,1.4-3,3v1.5c0,1.6,1.3,3,3,3h356.1c1.6,0,3-1.3,3-3v-1.5
	C450.5,364.7,449.1,363.4,447.5,363.4z"/>
<path class="st1" d="M115.8,212.2H7c-1.6,0-3,1.3-3,3v1.5c0,1.7,1.3,3,3,3h108.8c1.6,0,3-1.3,3-3v-1.5
	C118.8,213.5,117.5,212.2,115.8,212.2z"/>
<path class="st1" d="M143.8,246.9H35c-1.6,0-3,1.3-3,3v1.5c0,1.7,1.3,3,3,3h108.8c1.7,0,3-1.3,3-3v-1.5
	C146.8,248.2,145.5,246.9,143.8,246.9z"/>
<ellipse transform="matrix(0.2653 -0.9642 0.9642 0.2653 -191.5875 410.8191)" class="st2" cx="173.8" cy="331.1" rx="34.8" ry="34"/>
<ellipse transform="matrix(0.2653 -0.9642 0.9642 0.2653 -191.3675 410.8624)" class="st3" cx="173.9" cy="331" rx="17.1" ry="16.7"/>
<ellipse transform="matrix(0.2653 -0.9642 0.9642 0.2653 -28.9203 623.2517)" class="st2" cx="394.5" cy="330.6" rx="34.8" ry="34"/>
<ellipse transform="matrix(0.2653 -0.9642 0.9642 0.2653 -28.7004 623.295)" class="st3" cx="394.6" cy="330.5" rx="17.1" ry="16.7"/>
</svg>
