<svg xmlns="http://www.w3.org/2000/svg" xmlns:xlink="http://www.w3.org/1999/xlink" xmlns:fi="http://pattern.flaticon.com/" x="0" y="0" width="3500" height="1000" viewBox="0 0 4900 1400"><rect x="0px" y="0px" width="100%" height="100%" opacity="1" fill="#a90909"/><defs><g transform="matrix(0.14183006746822288 0.024453459335145346 -0.024453459335145346 0.14183006746822288 319.93968538463156 -40.65143019268036)" id="L1_953"><path d="m428.6875 0c-5.085938 0-10.0625 2.0625-13.65625 5.65625l-399.429688 399.433594c-10.066406 10.0625-15.601562 23.421875-15.601562 37.652344 0 29.371093 23.886719 53.257812 53.257812 53.257812 14.222657 0 27.589844-5.535156 37.652344-15.601562l15.144532-15.140626c5.96875-5.96875 13.90625-9.257812 22.34375-9.257812 26.25 0 47.601562-21.351562 47.601562-47.601562 0-8.4375 3.289062-16.375 9.257812-22.34375l10.054688-10.054688h73.574219l176.984375-345.921875c1.394531-2.710937 2.128906-5.757813 2.128906-8.804687v-1.960938c0-10.648438-8.664062-19.3125-19.3125-19.3125zm-260.144531 381.230469-53.230469-53.230469 12.6875-12.6875 52.6875 52.6875-6.742188 6.742188c-2.015624 2.019531-3.800781 4.203124-5.402343 6.488281zm-40.144531 58.769531c-12.710938 0-24.664063 4.953125-33.65625 13.945312l-15.140626 15.144532c-7.042968 7.039062-16.394531 10.910156-26.34375 10.910156-20.546874 0-37.257812-16.710938-37.257812-37.257812 0-9.949219 3.871094-19.300782 10.910156-26.34375l77.089844-77.085938 57.480469 57.480469c-.945313 3.75-1.480469 7.632812-1.480469 11.605469 0 17.425781-14.175781 31.601562-31.601562 31.601562zm303.601562-418.726562c0 .527343-.128906 1.039062-.367188 1.511718l-172.519531 337.214844h-63.800781l-56-56 287.03125-287.03125c.617188-.617188 1.472656-.96875 2.34375-.96875 1.824219 0 3.3125 1.488281 3.3125 3.3125zm0 0" fill="#fdfcff"/><path d="m56 416c-13.230469 0-24 10.769531-24 24s10.769531 24 24 24 24-10.769531 24-24-10.769531-24-24-24zm0 32c-4.414062 0-8-3.585938-8-8s3.585938-8 8-8 8 3.585938 8 8-3.585938 8-8 8zm0 0" fill="#fdfcff"/><path d="m306.339844 154.34375 16-15.996094 11.3125 11.3125-15.996094 15.996094zm0 0" fill="#fdfcff"/><path d="m162.339844 298.34375 127.996094-127.996094 11.3125 11.3125-127.996094 127.996094zm0 0" fill="#fdfcff"/></g><g transform="matrix(0.08064515888690948 0 0 0.08064515888690948 155 330)" id="L1_955"><path d="m477.792969 18.546875c-11.6875-11.640625-27.191407-18.046875-43.863281-18.046875-.082032 0-.160157 0-.242188 0-18.765625.070312-36.273438 8.503906-48.023438 23.144531l-47.128906 58.6875-304.949218 203.296875c-21.035157 14.023438-33.585938 37.488282-33.585938 62.75 0 20.144532 7.839844 39.082032 22.089844 53.320313l9.621094 9.625 88.289062-79.464844v-31.390625l250.214844-174.394531-174.390625 250.226562h-31.382813l-79.457031 88.289063 9.617187 9.621094c14.238282 14.25 33.183594 22.089843 53.320313 22.089843 25.269531 0 48.71875-12.554687 62.742187-33.578125l203.304688-304.949218 58.800781-47.042969c14.757813-11.816407 23.230469-29.429688 23.230469-48.335938 0-16.574219-6.464844-32.140625-18.207031-43.847656zm-15.015625 79.679687-60.746094 48.601563-204.679688 307.015625c-11.039062 16.566406-29.519531 26.457031-49.429687 26.457031-15.347656 0-29.800781-5.785156-40.890625-16.304687l6.929688-7.695313h46.039062v-16h-31.640625l14.402344-16h33.238281v-16h-18.839844l14.398438-16h32.617187l187.824219-269.488281v-18.511719h-18.511719l-269.488281 187.832031v32.605469l-16 14.402344v-18.839844h-16v33.238281l-16 14.402344v-31.640625h-16v46.039063l-7.6875 6.921875c-10.535156-11.082031-16.3125-25.539063-16.3125-40.882813 0-19.902344 9.886719-38.390625 26.457031-49.4375l305.984375-203.984375 49.695313-61.296875c8.710937-10.847656 21.695312-17.105468 35.800781-17.160156h.167969c12.230469 0 23.726562 4.753906 32.390625 13.382812 8.710937 8.671876 13.503906 20.226563 13.503906 32.511719 0 14.027344-6.28125 27.082031-17.222656 35.832031zm0 0" fill="#ffffff"/><path d="m432 32.300781c-17.648438 0-32 14.351563-32 32 0 17.648438 14.351562 32 32 32s32-14.351562 32-32c0-17.648437-14.351562-32-32-32zm0 48c-8.824219 0-16-7.175781-16-16s7.175781-16 16-16 16 7.175781 16 16-7.175781 16-16 16zm0 0" fill="#ffffff"/></g><g transform="matrix(0.08064515888690948 0 0 0.08064515888690948 242.5 67.5)" id="L1_957"><path d="m380.542969 0-258.109375 274.230469-113.320313 98.226562c-5.792969 5.015625-9.113281 12.277344-9.113281 19.933594 0 6.945313 2.816406 13.738281 7.726562 18.648437l29.234376 29.234376c4.984374 4.984374 11.597656 7.726562 18.648437 7.726562 7.664063 0 14.925781-3.320312 19.925781-9.105469l92.878906-107.167969 48.355469 48.351563 279.230469-361.351563v-18.726562zm-317.09375 428.425781c-3.777344 4.367188-11.082031 4.628907-15.167969.535157l-29.242188-29.234376c-1.925781-1.933593-3.039062-4.605468-3.039062-7.335937 0-3.007813 1.304688-5.863281 3.585938-7.839844l78.023437-67.621093 33.460937 33.460937zm78.136719-90.152343-31.851563-31.847657 17.882813-15.496093 29.472656 29.460937zm73.636718 17.636718-76.078125-76.078125 12.304688-13.070312 74.839843 74.839843zm20.929688-27.070312-73.726563-73.726563 225.03125-239.113281h90.4375zm0 0" fill="#fdfcff"/><path d="m272.574219 226.664062 129.304687-167.324218 12.65625 9.777344-129.304687 167.324218zm0 0" fill="#fdfcff"/><path d="m247.132812 259.5625 12.710938-16.445312 12.652344 9.777343-12.707032 16.445313zm0 0" fill="#fdfcff"/></g><g transform="matrix(0.14019066095352173 0 0 0.14019066095352173 315 140)" id="L1_958"><path d="m77.269531 349.171875 11.3125-11.316406 16.671875 16.667969-11.308594 11.316406zm0 0" fill="#fdfcff"/><path d="m45.441406 317.378906 11.308594-11.316406 16.320312 16.308594-11.3125 11.316406zm0 0" fill="#fdfcff"/><path d="m206.195312 154.753906 14.578126-16.003906 11.828124 10.777344-14.578124 16.003906zm0 0" fill="#fdfcff"/><path d="m235.355469 122.753906 14.574219-16.007812 11.832031 10.777344-14.578125 16.003906zm0 0" fill="#fdfcff"/><path d="m401.878906 89.953125 15.578125-3.632813c-7.441406-31.929687-35.527343-54.265624-68.402343-54.320312-19.71875 0-38.648438 8.359375-51.925782 22.945312l-32.625 35.808594 11.832032 10.773438 32.625-35.808594c10.253906-11.253906 24.871093-17.710938 40.160156-17.710938 25.3125.03125 47.015625 17.289063 52.757812 41.945313zm0 0" fill="#fdfcff"/><path d="m464.398438 176.136719h-3.847657c-7.75 0-15.390625 2.625-21.496093 7.367187l-51.132813 39.777344 42.902344-57.21875c13.183593-17.582031 20.457031-39.367188 20.457031-61.34375v-2.480469c0-56.292969-45.808594-102.1679685-102.097656-102.238281-.054688 0-.105469 0-.160156 0-28.6875 0-56.222657 12.160156-75.558594 33.375l-214.265625 235.175781-7.726563-7.726562-51.3125 51.304687 187.304688 187.191406 19.238281-19.183593h92.769531c13.230469 0 24-10.769531 24-24 0-13.234375-10.769531-24-24-24h-57.058594l243.761719-193.578125c8.464844-6.71875 13.289063-16.773438 13.230469-27.582032-.09375-19.207031-15.789062-34.839843-35.007812-34.839843zm-197.613282 95.855469 17.976563 5.886718c1.519531.496094 2.925781 1.367188 4.117187 2.554688 4.015625 4.039062 4.007813 10.613281-.007812 14.644531l-21.96875 22.058594c-1.933594 1.933593-4.496094 3-7.207032 3h-.007812c-2.710938 0-5.253906-1.066407-7.183594-3-1.128906-1.136719-1.992187-2.527344-2.496094-4.046875l-6-18.136719c11.175782-2.960937 19.921876-11.753906 22.777344-22.960937zm61.078125 71.847656-14.144531 11.230468-31.078125-31.078124 12.664063-12.710938zm-91.992187-63.703125c-8.824219 0-16-7.175781-16-16s7.175781-16 16-16c8.824218 0 16 7.175781 16 16s-7.183594 16-16 16zm-30.910156-23.847657-18.320313-5.960937c-1.527344-.496094-2.945313-1.359375-4.152344-2.558594-1.945312-1.953125-3.023437-4.539062-3.015625-7.296875 0-2.761718 1.070313-5.34375 3.023438-7.296875l22.097656-22.03125c4.023438-4.015625 10.550781-4 14.558594 0 1.136718 1.128907 2 2.519531 2.496094 4.03125l6.039062 18.144531c-11.152344 2.976563-19.878906 11.769532-22.726562 22.96875zm-29.105469-39.082031-25.230469-25.230469 12.09375-13.28125 25.839844 25.839844zm-36.015625-13.390625 25.960937 25.960938c-1.496093 3.328125-2.328125 6.933594-2.328125 10.695312-.007812 7.03125 2.726563 13.648438 7.75 18.664063 2.921875 2.925781 6.546875 5.152343 10.472656 6.421875l23.664063 7.699218c3.113281 10.398438 11.304687 18.511719 21.746094 21.511719l7.726562 23.367188c1.28125 3.855469 3.480469 7.421875 6.34375 10.296875 4.945313 4.964844 11.519531 7.703125 18.519531 7.710937h.007813c3.609375 0 7.097656-.753906 10.320313-2.144531l31.097656 31.097656-81.03125 64.34375-149.5625-149.5625zm-117.054688 108.3125 28.6875-28.679687 164.679688 164.679687-28.671875 28.582032zm284.6875 144.007813c0 4.414062-3.585937 8-8 8h-76.71875l16.039063-15.992188-.007813-.007812h60.6875c4.414063 0 8 3.582031 8 8zm168.75-230.105469-135.742187 107.792969-35.089844-35.089844c4.441406-9.71875 2.769531-21.597656-5.214844-29.621094-2.894531-2.921875-6.496093-5.144531-10.421875-6.441406l-23.363281-7.648437c-3.117187-10.398438-11.3125-18.519532-21.765625-21.519532l-7.792969-23.390625c-1.296875-3.875-3.503906-7.433593-6.382812-10.296875-7.914063-7.894531-19.632813-9.632812-29.296875-5.320312l-27.648438-27.640625 111.800782-122.695313c16.304687-17.894531 39.527343-28.152344 63.734374-28.152344h.136719c47.488281.0625 86.121094 38.753907 86.121094 86.238282v2.480468c0 18.539063-6.128906 36.914063-17.25 51.746094l-57.3125 76.421875 17.898437 17.90625 70.261719-54.65625c3.3125-2.578125 7.457031-4 11.664063-4h3.847656c10.433594 0 18.960938 8.488281 19.007812 18.917969.027344 5.859375-2.597656 11.320312-7.191406 14.96875zm0 0" fill="#fdfcff"/><path d="m204.320312 295.289062c-17.214843-17.234374-42.410156-20.121093-56.113281-6.410156-13.703125 13.714844-10.832031 38.882813 6.410157 56.113282 9.894531 9.902343 22.414062 15.070312 33.878906 15.0625 8.488281 0 16.398437-2.832032 22.222656-8.65625 13.714844-13.71875 10.839844-38.886719-6.398438-56.109376zm-4.90625 44.789063c-7.335937 7.347656-22.671874 4.410156-33.484374-6.40625-10.816407-10.808594-13.746094-26.144531-6.410157-33.488281 2.746094-2.742188 6.601563-4.046875 10.921875-4.046875 7.238282 0 15.789063 3.679687 22.558594 10.457031 10.824219 10.804688 13.753906 26.140625 6.414062 33.484375zm0 0" fill="#fdfcff"/></g><g transform="matrix(0.10079851746559143 0 0 0.10079851746559143 62.5 237.5)" id="L1_961"><path d="m63.160156 200.628906c-12.089844 12.078125-22.472656 31.984375-27.792968 53.230469-2.71875 10.878906-7.695313 37.542969 4.800781 50.03125 6.199219 6.207031 15.910156 8.105469 25.4375 8.105469 9.648437 0 19.121093-1.945313 24.59375-3.3125 21.253906-5.3125 41.160156-15.695313 53.230469-27.785156 10.714843-10.703126 16.609374-24.957032 16.609374-40.125 0-15.179688-5.894531-29.433594-16.609374-40.144532-22.132813-22.128906-58.144532-22.121094-80.269532 0zm68.957032 68.957032c-9.964844 9.96875-27.511719 19-45.804688 23.570312-18.816406 4.703125-31.25 3.015625-34.832031-.578125-3.585938-3.574219-5.289063-16.007813-.585938-34.832031 4.570313-18.285156 13.609375-35.832032 23.578125-45.804688 7.941406-7.945312 18.382813-11.921875 28.832032-11.921875 10.4375 0 20.871093 3.976563 28.824218 11.921875 7.6875 7.6875 11.917969 17.917969 11.917969 28.832032-.007813 10.894531-4.238281 21.125-11.929687 28.8125zm0 0" fill="#ffffff"/><path d="m190.75 226.25c-1.933594-11.605469 2.335938-23.957031 11.425781-33.054688l131.238281-131.238281c6.847657-6.847656 10.625-15.960937 10.625-25.65625 0-20.007812-16.273437-36.2812498-36.28125-36.2812498-9.695312 0-18.808593 3.7773438-25.65625 10.6249998l-131.238281 131.238281c-9.097656 9.097657-21.457031 13.320313-33.054687 11.425782-28.273438-4.722656-57.226563 4.511718-77.441406 24.734375-16.976563 16.976562-31.257813 44.785156-37.273438 72.5625-7.0625 32.621093-1.941406 59.589843 14.417969 75.941406 11.550781 11.5625 28.421875 17.503906 48.832031 17.503906 8.472656 0 17.550781-1.023437 27.121094-3.09375 27.78125-6.015625 55.582031-20.304687 72.558594-37.28125 20.207031-20.191406 29.457031-49.144531 24.726562-77.425781zm17.289062-61.542969-28.6875-28.6875 12.6875-12.6875 28.6875 28.6875zm85.375-142.75c3.824219-3.824219 8.921876-5.9375 14.34375-5.9375 11.175782 0 20.28125 9.105469 20.28125 20.28125 0 5.421875-2.113281 10.511719-5.9375 14.34375l-90.0625 90.0625-28.6875-28.6875zm-203.34375 303.367188c-26.757812 5.785156-49.0625 2.101562-61.246093-10.089844-12.191407-12.191406-15.875-34.511719-10.089844-61.246094 5.3125-24.5625 18.25-49.9375 32.945313-64.632812 13.710937-13.710938 32.328124-21.265625 51.488281-21.265625 3.992187 0 8.007812.328125 12 1 16.734375 2.792968 34.269531-3.160156 47.007812-15.886719l5.863281-5.871094 28.6875 28.6875-5.863281 5.863281c-12.734375 12.738282-18.679687 30.304688-15.886719 47.007813 3.871094 23.183594-3.699218 46.914063-20.265624 63.480469-14.703126 14.703125-40.078126 27.632812-64.640626 32.953125zm0 0" fill="#ffffff"/><path d="m496.039062 156.300781c0-20.007812-16.273437-36.28125-36.28125-36.28125-9.695312 0-18.808593 3.777344-25.65625 10.625l-170.429687 170.429688c-10.890625-8.367188-24.457031-13.054688-38.257813-13.054688h-2.75c-16.488281 0-32.625 6.6875-44.28125 18.34375l-51.03125 51.03125c-4.648437 4.648438-7.3125 11.082031-7.3125 17.65625 0 13.769531 11.199219 24.96875 24.96875 24.96875 6.574219 0 13.007813-2.664062 17.65625-7.3125l38.0625-38.0625c1.671876-1.671875 3.984376-2.625 6.34375-2.625 4.945313 0 8.96875 4.023438 8.96875 8.96875 0 2.359375-.953124 4.671875-2.625 6.34375l-38.0625 38.0625c-4.648437 4.648438-7.3125 11.082031-7.3125 17.65625 0 13.769531 11.199219 24.96875 24.96875 24.96875 6.574219 0 13.007813-2.664062 17.65625-7.3125l38.0625-38.0625c1.671876-1.671875 3.984376-2.625 6.34375-2.625 4.945313 0 8.96875 4.023438 8.96875 8.96875 0 2.359375-.953124 4.671875-2.625 6.34375l-38.0625 38.0625c-4.648437 4.648438-7.3125 11.082031-7.3125 17.65625 0 13.769531 11.199219 24.96875 24.96875 24.96875 6.574219 0 13.007813-2.664062 17.65625-7.3125l51.03125-51.03125c11.65625-11.65625 18.34375-27.800781 18.34375-44.28125v-2.75c0-13.808593-4.6875-27.367187-13.054687-38.257812l170.429687-170.429688c6.847657-6.847656 10.625-15.960937 10.625-25.65625zm-184 119.03125 28.6875 28.6875-12.6875 12.6875-28.6875-28.6875zm-13.65625 82.34375c8.679688 8.679688 13.65625 20.695313 13.65625 32.96875v2.75c0 12.273438-4.976562 24.289063-13.65625 32.96875l-51.03125 51.03125c-1.671874 1.671875-3.984374 2.625-6.34375 2.625-4.945312 0-8.96875-4.023437-8.96875-8.96875 0-2.359375.953126-4.671875 2.625-6.34375l38.0625-38.0625c4.648438-4.648437 7.3125-11.082031 7.3125-17.65625 0-13.769531-11.199218-24.96875-24.96875-24.96875-6.574218 0-13.007812 2.664063-17.65625 7.3125l-38.0625 38.0625c-1.671874 1.671875-3.984374 2.625-6.34375 2.625-4.945312 0-8.96875-4.023437-8.96875-8.96875 0-2.359375.953126-4.671875 2.625-6.34375l38.0625-38.0625c4.648438-4.648437 7.3125-11.082031 7.3125-17.65625 0-13.769531-11.199218-24.96875-24.96875-24.96875-6.574218 0-13.007812 2.664063-17.65625 7.3125l-38.0625 38.0625c-1.671874 1.671875-3.984374 2.625-6.34375 2.625-4.945312 0-8.96875-4.023437-8.96875-8.96875 0-2.359375.953126-4.671875 2.625-6.34375l51.03125-51.03125c8.679688-8.679687 20.695313-13.65625 32.96875-13.65625h2.75c12.273438 0 24.289063 4.976563 32.96875 13.65625l5.65625 5.65625 24-24 28.6875 28.6875-24 24zm175.71875-187.03125-122.0625 122.0625-28.6875-28.6875 122.0625-122.0625c3.824219-3.824219 8.921876-5.9375 14.34375-5.9375 11.175782 0 20.28125 9.105469 20.28125 20.28125 0 5.421875-2.113281 10.519531-5.9375 14.34375zm0 0" fill="#ffffff"/></g><g transform="matrix(0.18024802207946777 0 0 0.18024802207946777 217.5 217.5)" id="L1_962"><path d="m454.054688 163.3125-118.054688-118.054688-166.054688 166.054688 118.054688 118.054688zm-22.621094 0-118.066406 118.054688-95.421876-95.421876 118.054688-118.066406zm-224.800782 33.945312 95.429688 95.429688-14.0625 14.054688-95.433594-95.429688zm0 0" fill="#fdfcff"/><path d="m288 374.625 211.3125-211.3125-163.3125-163.3125-211.3125 211.3125 64 64-28.6875 28.6875-16-16-130.054688 130.054688c-8.992187 8.992187-13.945312 20.945312-13.945312 33.65625 0 26.25 21.351562 47.601562 47.601562 47.601562 12.710938 0 24.664063-4.953125 33.65625-13.945312l95.964844-95.96875c.007813-.007813.023438-.015626.035156-.03125l10.117188-10.121094 23.9375-23.933594-16-16 28.6875-28.6875zm48-352 140.6875 140.6875-188.6875 188.6875-140.6875-140.6875zm-147.3125 332.6875-22.742188 22.742188c-5.96875 5.96875-13.90625 9.257812-22.34375 9.257812-17.425781 0-31.601562-14.175781-31.601562-31.601562 0-8.4375 3.289062-16.375 9.257812-22.34375l22.742188-22.742188zm-118.742188 118.742188c-5.96875 5.96875-13.90625 9.257812-22.34375 9.257812-17.425781 0-31.601562-14.175781-31.601562-31.601562 0-8.4375 3.289062-16.375 9.257812-22.34375l70.878907-70.886719c1.390625 24.03125 20.65625 43.289062 44.6875 44.6875zm114.054688-146.054688-12.6875-12.6875 28.6875-28.6875 12.6875 12.6875zm0 0" fill="#fdfcff"/><path d="m322.339844 112.972656 11.316406-11.316406 15.996094 16-11.3125 11.3125zm0 0" fill="#fdfcff"/><path d="m346.339844 136.972656 11.316406-11.316406 15.996094 16-11.3125 11.3125zm0 0" fill="#fdfcff"/><path d="m370.339844 160.972656 11.3125-11.316406 16 16-11.3125 11.3125zm0 0" fill="#fdfcff"/><path d="m298.339844 136.972656 11.316406-11.316406 15.996094 16-11.3125 11.3125zm0 0" fill="#fdfcff"/><path d="m322.339844 160.972656 11.316406-11.316406 15.996094 16-11.3125 11.3125zm0 0" fill="#fdfcff"/><path d="m346.339844 184.972656 11.3125-11.316406 16 16-11.3125 11.3125zm0 0" fill="#fdfcff"/><path d="m274.339844 160.972656 11.316406-11.316406 15.996094 16-11.3125 11.3125zm0 0" fill="#fdfcff"/><path d="m298.339844 184.972656 11.316406-11.316406 15.996094 16-11.3125 11.3125zm0 0" fill="#fdfcff"/><path d="m322.339844 208.972656 11.3125-11.316406 16 16-11.3125 11.3125zm0 0" fill="#fdfcff"/><path d="m250.339844 184.972656 11.316406-11.316406 15.996094 16-11.3125 11.3125zm0 0" fill="#fdfcff"/><path d="m274.339844 208.972656 11.316406-11.316406 15.996094 16-11.3125 11.3125zm0 0" fill="#fdfcff"/><path d="m298.339844 232.972656 11.3125-11.316406 16 16-11.3125 11.3125zm0 0" fill="#fdfcff"/></g><g transform="matrix(0.1363201766329438 -0.03652688124086529 0.03652688124086529 0.1363201766329438 113.13392952808606 130.25126262355525)"><path d="m369.335938 0c-48.289063 0-91.695313 26.832031-113.289063 70.015625l-106.238281 212.480469-5.808594-5.808594-131.3125 131.3125 12 12-14.054688 14.0625c-6.855468 6.847656-10.632812 15.96875-10.632812 25.65625 0 20.007812 16.28125 36.28125 36.289062 36.28125 9.695313 0 18.808594-3.777344 25.65625-10.625l14.054688-14.0625 12 12 131.3125-131.3125-5.808594-5.808594 212.480469-106.238281c43.183594-21.59375 70.015625-65.007813 70.015625-113.289063 0-69.839843-56.824219-126.664062-126.664062-126.664062zm77.535156 60.441406c-6.605469 63.085938-43.535156 120.445313-99.03125 152.160156l-124 70.878907zm-234.34375 211.726563 70.871094-124.007813c31.714843-55.496094 89.074218-92.433594 152.167968-99.039062zm57.832031-195c18.863281-37.726563 56.792969-61.167969 98.976563-61.167969 22.105468 0 42.664062 6.585938 59.96875 17.792969-66.335938 8.429687-126.304688 47.832031-159.792969 106.421875l-95.28125 166.707031-12.503907-12.507813zm-219.726563 396.894531c-3.832031 3.824219-8.929687 5.9375-14.34375 5.9375-11.183593 0-20.289062-9.105469-20.289062-20.28125 0-5.414062 2.113281-10.503906 5.945312-14.34375l14.054688-14.0625 28.6875 28.6875zm37.367188-13.375-52.6875-52.6875 108.6875-108.6875 52.6875 52.6875zm330.832031-235.046875-217.257812 108.625-12.496094-12.496094 166.707031-95.28125c58.597656-33.496093 98-93.464843 106.414063-159.800781 11.214843 17.304688 17.800781 37.871094 17.800781 59.976562 0 42.183594-23.441406 80.113282-61.167969 98.976563zm0 0" fill="#fdfcff"/><path d="m58.929688 401.792969 15.859374-15.867188 11.316407 11.308594-15.855469 15.871094zm0 0" fill="#fdfcff"/><path d="m90.796875 369.882812 16.039063-16.039062 11.3125 11.316406-16.035157 16.035156zm0 0" fill="#fdfcff"/></g><g transform="matrix(-0.12096773833036423 0 0 0.12096773833036423 129.99999821186066 51)" id="L1_963"><path d="m380.542969 0-258.109375 274.230469-113.320313 98.226562c-5.792969 5.015625-9.113281 12.277344-9.113281 19.933594 0 6.945313 2.816406 13.738281 7.726562 18.648437l29.234376 29.234376c4.984374 4.984374 11.597656 7.726562 18.648437 7.726562 7.664063 0 14.925781-3.320312 19.925781-9.105469l92.878906-107.167969 48.355469 48.351563 279.230469-361.351563v-18.726562zm-317.09375 428.425781c-3.777344 4.367188-11.082031 4.628907-15.167969.535157l-29.242188-29.234376c-1.925781-1.933593-3.039062-4.605468-3.039062-7.335937 0-3.007813 1.304688-5.863281 3.585938-7.839844l78.023437-67.621093 33.460937 33.460937zm78.136719-90.152343-31.851563-31.847657 17.882813-15.496093 29.472656 29.460937zm73.636718 17.636718-76.078125-76.078125 12.304688-13.070312 74.839843 74.839843zm20.929688-27.070312-73.726563-73.726563 225.03125-239.113281h90.4375zm0 0" fill="#ffffff"/><path d="m272.574219 226.664062 129.304687-167.324218 12.65625 9.777344-129.304687 167.324218zm0 0" fill="#ffffff"/><path d="m247.132812 259.5625 12.710938-16.445312 12.652344 9.777343-12.707032 16.445313zm0 0" fill="#ffffff"/></g></defs><g fi:class="KUsePattern" opacity="0.1"><pattern id="pattern_L1_953" width="350" height="350" patternUnits="userSpaceOnUse"><use xlink:href="#L1_953" x="-350" y="-350"/><use xlink:href="#L1_953" x="0" y="-350"/><use xlink:href="#L1_953" x="350" y="-350"/><use xlink:href="#L1_953" x="-350" y="0"/><use xlink:href="#L1_953" x="0" y="0"/><use xlink:href="#L1_953" x="350" y="0"/><use xlink:href="#L1_953" x="-350" y="350"/><use xlink:href="#L1_953" x="0" y="350"/><use xlink:href="#L1_953" x="350" y="350"/></pattern><rect x="0" y="0" width="100%" height="100%" fill="url(#pattern_L1_953)"/></g><g fi:class="KUsePattern" opacity="0.1"><pattern id="pattern_L1_955" width="350" height="350" patternUnits="userSpaceOnUse"><use xlink:href="#L1_955" x="-350" y="-350"/><use xlink:href="#L1_955" x="0" y="-350"/><use xlink:href="#L1_955" x="350" y="-350"/><use xlink:href="#L1_955" x="-350" y="0"/><use xlink:href="#L1_955" x="0" y="0"/><use xlink:href="#L1_955" x="350" y="0"/><use xlink:href="#L1_955" x="-350" y="350"/><use xlink:href="#L1_955" x="0" y="350"/><use xlink:href="#L1_955" x="350" y="350"/></pattern><rect x="0" y="0" width="100%" height="100%" fill="url(#pattern_L1_955)"/></g><g fi:class="KUsePattern" opacity="0.1"><pattern id="pattern_L1_957" width="350" height="350" patternUnits="userSpaceOnUse"><use xlink:href="#L1_957" x="-350" y="-350"/><use xlink:href="#L1_957" x="0" y="-350"/><use xlink:href="#L1_957" x="350" y="-350"/><use xlink:href="#L1_957" x="-350" y="0"/><use xlink:href="#L1_957" x="0" y="0"/><use xlink:href="#L1_957" x="350" y="0"/><use xlink:href="#L1_957" x="-350" y="350"/><use xlink:href="#L1_957" x="0" y="350"/><use xlink:href="#L1_957" x="350" y="350"/></pattern><rect x="0" y="0" width="100%" height="100%" fill="url(#pattern_L1_957)"/></g><g fi:class="KUsePattern" opacity="0.1"><pattern id="pattern_L1_958" width="350" height="350" patternUnits="userSpaceOnUse"><use xlink:href="#L1_958" x="-350" y="-350"/><use xlink:href="#L1_958" x="0" y="-350"/><use xlink:href="#L1_958" x="350" y="-350"/><use xlink:href="#L1_958" x="-350" y="0"/><use xlink:href="#L1_958" x="0" y="0"/><use xlink:href="#L1_958" x="350" y="0"/><use xlink:href="#L1_958" x="-350" y="350"/><use xlink:href="#L1_958" x="0" y="350"/><use xlink:href="#L1_958" x="350" y="350"/></pattern><rect x="0" y="0" width="100%" height="100%" fill="url(#pattern_L1_958)"/></g><g fi:class="KUsePattern" opacity="0.1"><pattern id="pattern_L1_961" width="350" height="350" patternUnits="userSpaceOnUse"><use xlink:href="#L1_961" x="-350" y="-350"/><use xlink:href="#L1_961" x="0" y="-350"/><use xlink:href="#L1_961" x="350" y="-350"/><use xlink:href="#L1_961" x="-350" y="0"/><use xlink:href="#L1_961" x="0" y="0"/><use xlink:href="#L1_961" x="350" y="0"/><use xlink:href="#L1_961" x="-350" y="350"/><use xlink:href="#L1_961" x="0" y="350"/><use xlink:href="#L1_961" x="350" y="350"/></pattern><rect x="0" y="0" width="100%" height="100%" fill="url(#pattern_L1_961)"/></g><g fi:class="KUsePattern" opacity="0.1"><pattern id="pattern_L1_962" width="350" height="350" patternUnits="userSpaceOnUse"><use xlink:href="#L1_962" x="-350" y="-350"/><use xlink:href="#L1_962" x="0" y="-350"/><use xlink:href="#L1_962" x="350" y="-350"/><use xlink:href="#L1_962" x="-350" y="0"/><use xlink:href="#L1_962" x="0" y="0"/><use xlink:href="#L1_962" x="350" y="0"/><use xlink:href="#L1_962" x="-350" y="350"/><use xlink:href="#L1_962" x="0" y="350"/><use xlink:href="#L1_962" x="350" y="350"/></pattern><rect x="0" y="0" width="100%" height="100%" fill="url(#pattern_L1_962)"/></g><g fi:class="KUsePattern" transform="matrix(1 0 0 1 20 20)" opacity="0.1"><pattern id="pattern_UNKNOWN" width="350" height="350" patternUnits="userSpaceOnUse"><use xlink:href="#UNKNOWN" x="-350" y="-350"/><use xlink:href="#UNKNOWN" x="0" y="-350"/><use xlink:href="#UNKNOWN" x="350" y="-350"/><use xlink:href="#UNKNOWN" x="-350" y="0"/><use xlink:href="#UNKNOWN" x="0" y="0"/><use xlink:href="#UNKNOWN" x="350" y="0"/><use xlink:href="#UNKNOWN" x="-350" y="350"/><use xlink:href="#UNKNOWN" x="0" y="350"/><use xlink:href="#UNKNOWN" x="350" y="350"/></pattern><rect x="0" y="0" width="100%" height="100%" fill="url(#pattern_UNKNOWN)"/></g><g fi:class="KUsePattern" opacity="0.1"><pattern id="pattern_L1_963" width="350" height="350" patternUnits="userSpaceOnUse"><use xlink:href="#L1_963" x="-350" y="-350"/><use xlink:href="#L1_963" x="0" y="-350"/><use xlink:href="#L1_963" x="350" y="-350"/><use xlink:href="#L1_963" x="-350" y="0"/><use xlink:href="#L1_963" x="0" y="0"/><use xlink:href="#L1_963" x="350" y="0"/><use xlink:href="#L1_963" x="-350" y="350"/><use xlink:href="#L1_963" x="0" y="350"/><use xlink:href="#L1_963" x="350" y="350"/></pattern><rect x="0" y="0" width="100%" height="100%" fill="url(#pattern_L1_963)"/></g></svg>