<svg xmlns="http://www.w3.org/2000/svg" xmlns:xlink="http://www.w3.org/1999/xlink" xmlns:fi="http://pattern.flaticon.com/" x="0" y="0" width="3500" height="500" viewBox="0 0 4900 700"><rect x="0px" y="0px" width="100%" height="100%" opacity="1" fill="#7e745f"/><defs><g transform="matrix(0.1411290317773819 0 0 0.1411290317773819 -26 136)" id="L1_501"><path d="m170.742188 112c-14.222657 0-27.597657 5.535156-37.652344 15.601562l-69.488282 69.488282c-10.066406 10.0625-15.601562 23.429687-15.601562 37.652344 0 29.371093 23.886719 53.257812 53.257812 53.257812 14.222657 0 27.597657-5.535156 37.652344-15.601562l69.496094-69.496094c10.058594-10.054688 15.601562-23.429688 15.601562-37.65625-.007812-29.359375-23.894531-53.246094-53.265624-53.246094zm26.347656 79.601562-69.496094 69.496094c-7.035156 7.03125-16.386719 10.902344-26.335938 10.902344-20.546874 0-37.257812-16.710938-37.257812-37.257812 0-9.949219 3.871094-19.308594 10.910156-26.34375l69.496094-69.496094c7.035156-7.03125 16.386719-10.902344 26.335938-10.902344 20.546874 0 37.257812 16.710938 37.257812 37.257812 0 9.949219-3.871094 19.300782-10.910156 26.34375zm0 0" fill="#e6c78e"/><path d="m467.320312 242.265625-60.550781-36.335937-10.769531 10.757812-52.6875-52.6875.6875-.6875c5.160156-5.160156 8-12.015625 8-19.3125s-2.839844-14.160156-8-19.3125l-4.734375-4.734375c8.199219-8.679687 12.734375-19.960937 12.734375-31.953125 0-12.457031-4.847656-24.167969-13.65625-32.96875l-30.054688-30.054688c-16.105468-16.113281-37.511718-24.976562-60.289062-24.976562s-44.183594 8.863281-60.289062 24.976562l-174.054688 174.054688c-8.808594 8.800781-13.65625 20.511719-13.65625 32.96875s4.847656 24.167969 13.65625 32.96875l57.375 57.375c8.800781 8.808594 20.511719 13.65625 32.96875 13.65625s24.167969-4.847656 32.96875-13.65625l87.03125-87.03125 4.6875 4.6875c5.160156 5.160156 12.015625 8 19.3125 8s14.160156-2.839844 19.3125-8l40.6875-40.6875 52.6875 52.6875-10.757812 10.761719 36.335937 60.550781c10.605469 17.695312 30.023437 28.6875 50.65625 28.6875 32.574219 0 59.078125-26.503906 59.078125-59.078125 0-20.632813-10.992188-40.050781-28.679688-50.65625zm-341.664062 68.765625c-11.566406 11.570312-31.746094 11.570312-43.3125 0l-57.375-57.375c-5.785156-5.785156-8.96875-13.480469-8.96875-21.65625s3.183594-15.871094 8.96875-21.65625l174.054688-174.054688c13.089843-13.089843 30.480468-20.289062 48.976562-20.289062s35.886719 7.199219 48.976562 20.289062l30.054688 30.054688c5.785156 5.785156 8.96875 13.480469 8.96875 21.65625s-3.183594 15.871094-8.96875 21.65625zm130.34375-82.34375c-4.207031 4.207031-11.792969 4.207031-16 0l-4.6875-4.6875 92.6875-92.6875 4.6875 4.6875c2.105469 2.105469 3.3125 5.023438 3.3125 8s-1.207031 5.894531-3.3125 8zm63.3125-40.6875 12.6875-12.6875 52.6875 52.6875-12.6875 12.6875zm117.609375 148c-15.050781 0-29.203125-8.015625-36.945313-20.921875l-29.90625-49.839844 39.167969-39.167969 49.839844 29.90625c12.90625 7.742188 20.921875 21.894532 20.921875 36.945313 0 23.75-19.328125 43.078125-43.078125 43.078125zm0 0" fill="#e6c78e"/><path d="m248 32c-22.054688 0-40 17.945312-40 40s17.945312 40 40 40 40-17.945312 40-40-17.945312-40-40-40zm0 64c-13.230469 0-24-10.769531-24-24s10.769531-24 24-24 24 10.769531 24 24-10.769531 24-24 24zm0 0" fill="#e6c78e"/></g><path d="M165,0C74.019,0,0,74.019,0,165s74.019,165,165,165c90.982,0,165-74.019,165-165S255.982,0,165,0z" transform="matrix(0.03030303120613098 0 0 0.03030303120613098 256.5 257.5)" id="L1_502" fill="#e6c78e"/><g transform="matrix(0.19749506504531933 0.017954096867520676 -0.017954096867520676 0.19749506504531933 -34.957059326984236 -43.59473720729507)" id="L1_504"><path d="m380.542969 0-258.109375 274.230469-113.320313 98.226562c-5.792969 5.015625-9.113281 12.277344-9.113281 19.933594 0 6.945313 2.816406 13.738281 7.726562 18.648437l29.234376 29.234376c4.984374 4.984374 11.597656 7.726562 18.648437 7.726562 7.664063 0 14.925781-3.320312 19.925781-9.105469l92.878906-107.167969 48.355469 48.351563 279.230469-361.351563v-18.726562zm-317.09375 428.425781c-3.777344 4.367188-11.082031 4.628907-15.167969.535157l-29.242188-29.234376c-1.925781-1.933593-3.039062-4.605468-3.039062-7.335937 0-3.007813 1.304688-5.863281 3.585938-7.839844l78.023437-67.621093 33.460937 33.460937zm78.136719-90.152343-31.851563-31.847657 17.882813-15.496093 29.472656 29.460937zm73.636718 17.636718-76.078125-76.078125 12.304688-13.070312 74.839843 74.839843zm20.929688-27.070312-73.726563-73.726563 225.03125-239.113281h90.4375zm0 0" fill="#e6c78e"/><path d="m272.574219 226.664062 129.304687-167.324218 12.65625 9.777344-129.304687 167.324218zm0 0" fill="#e6c78e"/><path d="m247.132812 259.5625 12.710938-16.445312 12.652344 9.777343-12.707032 16.445313zm0 0" fill="#e6c78e"/></g><g transform="matrix(0.12016534805297852 0 0 0.12016534805297852 139 138)" id="L1_506"><path d="m451.710938.15625c-12.710938 0-24.664063 4.953125-33.65625 13.945312l-106.054688 106.054688h-32l-24 24 8 8-264 264 16 16h3.3125c88.589844 0 174.625-36.625 236.03125-100.488281l92.230469-95.9375 7.738281 7.738281 24-24v-32l106.054688-106.058594c8.992187-8.988281 13.945312-20.941406 13.945312-33.652344 0-26.25-21.351562-47.601562-47.601562-47.601562zm-207.902344 320.421875c-57.640625 59.9375-138.082032 94.65625-221.167969 95.5625l252.671875-252.671875 60.953125 60.953125zm111.503906-99.734375-76.6875-76.6875 8-8h25.375l51.3125 51.3125v25.375zm118.742188-150.742188-102.742188 102.742188-44.6875-44.6875 12.6875-12.6875 34.34375 34.34375 11.3125-11.3125-34.34375-34.34375 12.6875-12.6875 34.34375 34.34375 11.3125-11.3125-34.34375-34.34375 54.742188-54.746094c5.96875-5.964844 13.90625-9.253906 22.34375-9.253906 17.425781 0 31.601562 14.175781 31.601562 31.601562 0 8.4375-3.289062 16.375-9.257812 22.34375zm0 0" fill="#e6c78e"/><path d="m109.652344 354.496094 16-15.996094 11.3125 11.3125-15.996094 15.996094zm0 0" fill="#e6c78e"/><path d="m141.652344 322.496094 16-15.996094 11.3125 11.3125-15.996094 15.996094zm0 0" fill="#e6c78e"/><path d="m173.652344 290.496094 88-87.996094 11.3125 11.3125-87.996094 88zm0 0" fill="#e6c78e"/></g><g transform="matrix(0.12096773833036423 0 0 0.12096773833036423 145 330)" id="L1_507"><path d="m480 416v-168c0-48.519531-39.480469-88-88-88h-8v-34.734375c18.878906-6.679687 32-24.777344 32-45.265625 0-26.472656-21.527344-48-48-48h-66.863281c-6.695313-18.855469-24.664063-32-45.136719-32h-128c-26.472656 0-48 21.527344-48 48 0 20.488281 13.121094 38.574219 32 45.265625v66.734375h-8c-48.519531 0-88 39.480469-88 88v168c-8.824219 0-16 7.175781-16 16v16c0 8.824219 7.175781 16 16 16h33.761719l7.992187 32h60.492188l7.992187-32h243.523438l7.992187 32h60.492188l7.992187-32h33.761719c8.824219 0 16-7.175781 16-16v-16c0-8.824219-7.175781-16-16-16zm-80-336c0 15.160156-10.769531 28.34375-25.59375 31.351562l-6.40625 1.304688v47.34375h-128v-47.34375l-6.40625-1.304688c-14.824219-3.007812-25.59375-16.191406-25.59375-31.351562 0-17.648438 14.351562-32 32-32h128c17.648438 0 32 14.351562 32 32zm-278.40625-.648438c-14.824219-3.007812-25.59375-16.191406-25.59375-31.351562 0-17.648438 14.351562-32 32-32h128c11.625 0 22.046875 6.359375 27.65625 16h-43.65625c-26.472656 0-48 21.527344-48 48 0 20.488281 13.121094 38.574219 32 45.265625v34.734375h-96v-79.34375zm-89.59375 168.648438c0-39.695312 32.296875-72 72-72h288c39.703125 0 72 32.304688 72 72v168h-432zm73.753906 232h-35.507812l-4.007813-16h43.515625zm320 0h-35.507812l-4.007813-16h43.515625zm54.246094-32h-464l-.015625-16h464.015625zm0 0" fill="#e6c78e"/><path d="m432 248h16c0-30.878906-25.128906-56-56-56h-40v16h40c22.054688 0 40 17.945312 40 40zm0 0" fill="#e6c78e"/><path d="m432 264h16v16h-16zm0 0" fill="#e6c78e"/><path d="m384 304c-26.472656 0-48 21.527344-48 48s21.527344 48 48 48 48-21.527344 48-48-21.527344-48-48-48zm32 48c0 5.921875-1.71875 11.390625-4.535156 16.152344l-43.625-43.625c4.769531-2.808594 10.238281-4.527344 16.160156-4.527344 17.648438 0 32 14.351562 32 32zm-64 0c0-5.921875 1.71875-11.390625 4.535156-16.152344l43.625 43.625c-4.769531 2.808594-10.238281 4.527344-16.160156 4.527344-17.648438 0-32-14.351562-32-32zm0 0" fill="#e6c78e"/><path d="m112 304c-26.472656 0-48 21.527344-48 48s21.527344 48 48 48 48-21.527344 48-48-21.527344-48-48-48zm0 16c5.921875 0 11.390625 1.71875 16.152344 4.535156l-43.625 43.625c-2.808594-4.769531-4.527344-10.238281-4.527344-16.160156 0-17.648438 14.351562-32 32-32zm0 64c-5.921875 0-11.390625-1.71875-16.152344-4.535156l43.625-43.625c2.808594 4.769531 4.527344 10.238281 4.527344 16.160156 0 17.648438-14.351562 32-32 32zm0 0" fill="#e6c78e"/><path d="m336 272v-48h-32v-32h-16v32h-32v48h32v128h16v-128zm-64-32h48v16h-48zm0 0" fill="#e6c78e"/><path d="m208 192h-16v64h-32v48h32v96h16v-96h32v-48h-32zm16 96h-48v-16h48zm0 0" fill="#e6c78e"/><path d="m432 296h16v16h-16zm0 0" fill="#e6c78e"/><path d="m352 64h16v16h-16zm0 0" fill="#e6c78e"/><path d="m256 64h80v16h-80zm0 0" fill="#e6c78e"/><path d="m136 32h16v16h-16zm0 0" fill="#e6c78e"/><path d="m168 32h16v16h-16zm0 0" fill="#e6c78e"/></g></defs><g fi:class="KUsePattern"><pattern id="pattern_L1_501" width="350" height="350" patternUnits="userSpaceOnUse"><use xlink:href="#L1_501" x="-350" y="-350"/><use xlink:href="#L1_501" x="0" y="-350"/><use xlink:href="#L1_501" x="350" y="-350"/><use xlink:href="#L1_501" x="-350" y="0"/><use xlink:href="#L1_501" x="0" y="0"/><use xlink:href="#L1_501" x="350" y="0"/><use xlink:href="#L1_501" x="-350" y="350"/><use xlink:href="#L1_501" x="0" y="350"/><use xlink:href="#L1_501" x="350" y="350"/></pattern><rect x="0" y="0" width="100%" height="100%" fill="url(#pattern_L1_501)"/></g><g fi:class="KUsePattern"><pattern id="pattern_L1_502" width="350" height="350" patternUnits="userSpaceOnUse"><use xlink:href="#L1_502" x="-350" y="-350"/><use xlink:href="#L1_502" x="0" y="-350"/><use xlink:href="#L1_502" x="350" y="-350"/><use xlink:href="#L1_502" x="-350" y="0"/><use xlink:href="#L1_502" x="0" y="0"/><use xlink:href="#L1_502" x="350" y="0"/><use xlink:href="#L1_502" x="-350" y="350"/><use xlink:href="#L1_502" x="0" y="350"/><use xlink:href="#L1_502" x="350" y="350"/></pattern><rect x="0" y="0" width="100%" height="100%" fill="url(#pattern_L1_502)"/></g><g fi:class="KUsePattern"><pattern id="pattern_L1_504" width="350" height="350" patternUnits="userSpaceOnUse"><use xlink:href="#L1_504" x="-350" y="-350"/><use xlink:href="#L1_504" x="0" y="-350"/><use xlink:href="#L1_504" x="350" y="-350"/><use xlink:href="#L1_504" x="-350" y="0"/><use xlink:href="#L1_504" x="0" y="0"/><use xlink:href="#L1_504" x="350" y="0"/><use xlink:href="#L1_504" x="-350" y="350"/><use xlink:href="#L1_504" x="0" y="350"/><use xlink:href="#L1_504" x="350" y="350"/></pattern><rect x="0" y="0" width="100%" height="100%" fill="url(#pattern_L1_504)"/></g><g fi:class="KUsePattern"><pattern id="pattern_L1_506" width="350" height="350" patternUnits="userSpaceOnUse"><use xlink:href="#L1_506" x="-350" y="-350"/><use xlink:href="#L1_506" x="0" y="-350"/><use xlink:href="#L1_506" x="350" y="-350"/><use xlink:href="#L1_506" x="-350" y="0"/><use xlink:href="#L1_506" x="0" y="0"/><use xlink:href="#L1_506" x="350" y="0"/><use xlink:href="#L1_506" x="-350" y="350"/><use xlink:href="#L1_506" x="0" y="350"/><use xlink:href="#L1_506" x="350" y="350"/></pattern><rect x="0" y="0" width="100%" height="100%" fill="url(#pattern_L1_506)"/></g><g fi:class="KUsePattern"><pattern id="pattern_L1_507" width="350" height="350" patternUnits="userSpaceOnUse"><use xlink:href="#L1_507" x="-350" y="-350"/><use xlink:href="#L1_507" x="0" y="-350"/><use xlink:href="#L1_507" x="350" y="-350"/><use xlink:href="#L1_507" x="-350" y="0"/><use xlink:href="#L1_507" x="0" y="0"/><use xlink:href="#L1_507" x="350" y="0"/><use xlink:href="#L1_507" x="-350" y="350"/><use xlink:href="#L1_507" x="0" y="350"/><use xlink:href="#L1_507" x="350" y="350"/></pattern><rect x="0" y="0" width="100%" height="100%" fill="url(#pattern_L1_507)"/></g></svg>